# xmcd CD database file
#
# Track frame offsets:
#	187
#	18300
#	37572
#	56285
#	74255
#	95277
#	117282
#	136162
#	153447
#
# Disc length: 2199 seconds
#
# Revision: 0
# Processed by: cddbd v1.5.1PL0 Copyright (c) Steve Scherf et al.
# Submitted via: CDex 1.51
#
DISCID=62089509
DTITLE=Action - Warning In The Night
DYEAR=1986
DGENRE=Hard Rock
TTITLE0=B♂Wy 1984
TTITLE1=Roll Over Junk Lady
TTITLE2=City Fighter
TTITLE3=Noise
TTITLE4=100,000 Volt
TTITLE5=Make You Crazy
TTITLE6=Making Love
TTITLE7=Heroine
TTITLE8=M-93r
EXTD=YEAR: 1986
EXTT0=
EXTT1=
EXTT2=
EXTT3=
EXTT4=
EXTT5=
EXTT6=
EXTT7=
EXTT8=
PLAYORDER=
